/* XPM */
static char *_a685cfab421455fbb3ee373cb1985eekJtEbgFMOz7TNeHE[] = {
/* columns rows colors chars-per-pixel */
"80 80 2 1 ",
"  c None",
". c #F86970",
/* pixels */
"                                                    ..                          ",
"                                                   .....                        ",
"                                                  ......                        ",
"                                                 .......                        ",
"                                                .......                         ",
"                                              .........                         ",
"                                             ..........                         ",
"                                            ...........                         ",
"                                           ...........                          ",
"                                          ............                          ",
"                                         .............                          ",
"                                        ....... .....                           ",
"                                       ....... ......                           ",
"                                      ......   ......                           ",
"                                     ......    .....                            ",
"                                   .......     .....                            ",
"                                  .......     ......                            ",
"                                 .......      .....                             ",
"                                .......       .....                             ",
"                               .......       ......                             ",
"                              .......        ......                             ",
"                             .......         .....                              ",
"                            .......         ......                              ",
"                           .......          ......                              ",
"                          ......            .....                               ",
"                         ......             .....                               ",
"                       .......             ......                               ",
"                      .......              .....                                ",
"                     .......               .....                                ",
"                    .......               ......                                ",
"                   .......                ......                                ",
"                  .......                 ....................................  ",
"                 .......                 .......................................",
"                .......                   ......................................",
"               ......                     ..................................... ",
"              ......                                                   .......  ",
"            .......                                                   .......   ",
"           .......                                                   .......    ",
"          .......                                                   ......      ",
"         .......                                                   ......       ",
"        .......                                                  .......        ",
"       .......                                                  .......         ",
"      .......                                                  .......          ",
"     .......                                                  .......           ",
"    .......                                                  .......            ",
"   .......                                                  .......             ",
"  ......................................                   .......              ",
" ........................................                 .......               ",
" ........................................                .......                ",
"  .......................................               .......                 ",
"                                   .....               ......                   ",
"                                  ......              ......                    ",
"                                  ......            .......                     ",
"                                  .....            .......                      ",
"                                 ......           .......                       ",
"                                 ......          .......                        ",
"                                 .....          .......                         ",
"                                ......         .......                          ",
"                                ......        .......                           ",
"                                .....        .......                            ",
"                               ......       .......                             ",
"                               ......      .......                              ",
"                               .....      ......                                ",
"                              ......     ......                                 ",
"                              ......   .......                                  ",
"                              .....   .......                                   ",
"                             ......  .......                                    ",
"                             ...... .......                                     ",
"                             ..... .......                                      ",
"                            .............                                       ",
"                            ............                                        ",
"                            ...........                                         ",
"                           ...........                                          ",
"                           ..........                                           ",
"                           ........                                             ",
"                          ........                                              ",
"                          .......                                               ",
"                          ......                                                ",
"                          .....                                                 ",
"                           ...                                                  "
};
