/* XPM */
static char *_45a1c3bf5204a4980a1a571643002a8fPVbbQU29T3IBomy[] = {
/* columns rows colors chars-per-pixel */
"80 80 188 2 ",
"   c #597810",
".  c #617F15",
"X  c #6C7E25",
"o  c #69742E",
"O  c #6C7C28",
"+  c #757E31",
"@  c #5E8118",
"#  c #638415",
"$  c #678915",
"%  c #65851B",
"&  c #69851C",
"*  c #67891D",
"=  c #6B8C1D",
"-  c #738E1E",
";  c #6E921D",
":  c #789D16",
">  c #74941D",
",  c #7A951E",
"<  c #769A1D",
"1  c #7A9C1E",
"2  c #75A21B",
"3  c #7EA21E",
"4  c #658324",
"5  c #6C8524",
"6  c #678927",
"7  c #6D8C23",
"8  c #6A862B",
"9  c #678928",
"0  c #6C8C2B",
"q  c #728321",
"w  c #728D24",
"e  c #7B8E25",
"r  c #73862B",
"t  c #748D2B",
"y  c #7B8D2C",
"u  c #6E9124",
"i  c #6F942C",
"p  c #749424",
"a  c #7A9525",
"s  c #769A23",
"d  c #7B9B24",
"f  c #75932A",
"g  c #7B942B",
"h  c #76992A",
"j  c #7C9B2B",
"k  c #748535",
"l  c #798633",
"z  c #768D31",
"x  c #7D8B33",
"c  c #749331",
"v  c #7B9432",
"b  c #779A33",
"n  c #7D9C32",
"m  c #7D923B",
"M  c #7F9B3A",
"N  c #77A220",
"B  c #7DA224",
"V  c #7FA923",
"C  c #77A12C",
"Z  c #7EA22A",
"A  c #7DA82C",
"S  c #7EA232",
"D  c #809D1D",
"F  c #82A41E",
"G  c #84AA1C",
"H  c #8AAC1F",
"J  c #818E2C",
"K  c #819425",
"L  c #829D25",
"P  c #899C26",
"I  c #82952C",
"U  c #88952C",
"Y  c #829D2B",
"T  c #8A9D2D",
"R  c #828F32",
"E  c #87823C",
"W  c #868E3E",
"Q  c #888B38",
"!  c #908D3B",
"~  c #839632",
"^  c #8B9332",
"/  c #839C32",
"(  c #8A9D33",
")  c #809338",
"_  c #8A943E",
"`  c #829A39",
"'  c #8B9E3A",
"]  c #919D37",
"[  c #83A325",
"{  c #8AA426",
"}  c #84AA25",
"|  c #8AAB25",
" . c #84A32B",
".. c #8AA42C",
"X. c #85AA2B",
"o. c #8EAD2A",
"O. c #8BAB2C",
"+. c #8AAA2D",
"@. c #89A82E",
"#. c #8DA82D",
"$. c #8EA82C",
"%. c #8EAB2C",
"&. c #90A927",
"*. c #90A528",
"=. c #90A12E",
"-. c #92A62C",
";. c #91A72F",
":. c #91AA2A",
">. c #93AA2D",
",. c #90AC2F",
"<. c #94AF2D",
"1. c #9FAC2E",
"2. c #86B123",
"3. c #8BB224",
"4. c #87B129",
"5. c #89B029",
"6. c #8CB12B",
"7. c #8DB528",
"8. c #91B227",
"9. c #90B12A",
"0. c #93B42C",
"q. c #94B42F",
"w. c #9BB42E",
"e. c #94B92C",
"r. c #9CBB2F",
"t. c #80A130",
"y. c #84A332",
"u. c #86A232",
"i. c #86A136",
"p. c #87A434",
"a. c #89A030",
"s. c #88A530",
"d. c #8BA432",
"f. c #8DA732",
"g. c #86AA32",
"h. c #88AB31",
"j. c #8CA930",
"k. c #8FA933",
"l. c #8CAB32",
"z. c #8EAF35",
"x. c #85A23A",
"c. c #8BA339",
"v. c #85AB39",
"b. c #8BAA3A",
"n. c #90A431",
"m. c #92A534",
"M. c #90A634",
"N. c #99A736",
"B. c #93AC33",
"V. c #97AF31",
"C. c #93A935",
"Z. c #9BAC31",
"A. c #9AAC34",
"S. c #9AAE36",
"D. c #9DAD37",
"F. c #92A439",
"G. c #94A539",
"H. c #95A639",
"J. c #99A338",
"K. c #93AC3B",
"L. c #9BAD3A",
"P. c #8DB233",
"I. c #8DB13A",
"U. c #94B233",
"Y. c #95B433",
"T. c #95B537",
"R. c #9BB435",
"E. c #99B536",
"W. c #97BB31",
"Q. c #9CBC34",
"!. c #93B33A",
"~. c #99B13C",
"^. c #91B83A",
"/. c #A0AC35",
"(. c #A5A93B",
"). c #A1B736",
"_. c #A1BA37",
"`. c #A4B93C",
"'. c #8A9D40",
"]. c #969E41",
"[. c #909B49",
"{. c #8DA142",
"}. c #99AE41",
"|. c #9BBD45",
" X c #96B74D",
".X c #AEB341",
"XX c #A8BA42",
"oX c #A7BE4A",
/* pixels */
"@.B  .d s U Y T J T 9.,. .v j | %.{ d { q.[ o.@.e Z...L Y P F ..,.Z.%. .j / ` v  .j Y ..} [ H } o.d p s.p a %.Y K ,.o.< 3 X.f.[  .E.[ ,.$.,.3.} > = / T.5.P.t.V ",
"j [  .u.( x t =.J.D.{ q.C.y ..L | $.[ d  . .L P T U ( a L { { P K #.I P g v ` ( i.a s.{ d d [  .@.[  .d K j j | [ { ,.[ 1 K ;. .@.Q. .,.*.1 [ < > > w Y 7. . .h ",
"j ( ( u./ o I C.H.S.%.{ ..U :.{ #.%. .P Y ..1 [ #.g ) g s s j I j Y ( ) k z U i.f g  .[ Z x.a d d d d d  .j d Y  .[ >.[ K L ..<.o.| %.P d , 3 = B p j ..B V h.o.",
"s...Y Y x + _ F.U.<.| a ^ ..%.[ P m. ...{ [ F { [ / y y Y  .Z Y n d.' T g Z y./ t s d a ../ i b f b e T Y t Y c.Y I Y $.[ I I S... .Y d B } @.a Z X.s d  .[ Y T ",
"I Y U.B.%.y l S.r.0.[ d %.| | L P C. . .P , [ ..[ I ~ Y  ...Y  . .,.f.{ j Y h.@. . .d p g.P.S n {.{.O Y X.s g s.Y g h Y L a ( m.@.j [ < [ | 6.B B d p p B  .t g ",
"g T s... .5 I w./.w...- d d  .j Y [ s Y L d > #.m.m.n.%.L Y j  . . . .s d j j d.b./ T d U.X.v.P.l.K.' b Y  .c S Y a g { K a / I X.a } X.d X.o.5.X.d B d V h a d ",
"a s.../ y r ..} m.%.[ a Y s.Y d @.Y h - ( @.Y =.C.T a.s.g j ~ I [ n j d f / }.x.i.c.~ [ C.H. .Z Z v.x.M f x.t f l./ u. .I m.Y f... .[ o.%. .P.t.h.} [ [ s [ ..[ ",
"{ @.Y T g Y } j R.d s d Z  .[ d g r f.Y d  . . .T @.,.%.Y  . .s h / s f S  .d u u.i.S j / z.Y g f Z b 0 9 c 9 b {. .s.Y J C. .=.<.a s Y m.m.X.g...d O.,.s j e.} ",
"j [ l.h.Y h [ Y #.Y d } [ h Y g I x ( B.s.( ( K Y Z B B.Z ~ u.g.f j d a S s 9 / j @.} o.h h n g h g.S 4 9 C 0 Z I.C  .j ....d a } d d Z Z i.A g.O.B.%.[ s.[ ....",
"g @. .} [ } [ 1 p s d  .I g x x I P ~ i.( ( ^ i.C.%. .n.Y  ./ c.h f d h h f j x.m ~ u g.f h j v C N h S b 9 S v.h C A v.[ B [ L %.d B Z V v.X. .B f. .L  .T f.%.",
"Y I a B B G | B s [ [ s g j y E Q g y j t j f.s.[ z.#.Y y.B.[ b c j v f C j i.K.` t Z X.Z s 7 n X.Z j d 0 9 h v.C C f s.B Y  .%.o.Z b x.c.S S Y l.s.( J ^ N.K a ",
"].g a j Z [ Y U.0.<.[ B j ..( ! ] d h / g j Z Y  .@. .d.f.0.d a h j g x.( n k.t.a j h s  .n v s.t.Z h d C i 7 A A v.8 f h Z d  .h.0 b p.l.h f Y ..%.#.P N.*.%.g ",
"T Y a a p ....Z.,.o.} [  .T T ^ U Y j g ~ k. .X.i s d @.%.| d 7 t y.j c./ ( n j  .n x.I.C p / S y f 7 j A i 6 i Z g.v a  .B h C A x.t p u.n I ..L @.{ { [ [ B. .",
"j  .a f  .%.[ K Y  .@.P T t y r v t.j  .T.g.| X.s s j X.6.} p b n A j  .t.0 / n z.l.c g.g.h f b u.h s d i.b C s C !.l.h p p d h v.X.d Z y.z. .K.Y  . .I [  .s a ",
" .U.j f f a 3.[ a [ a P P g / j  .Y i. .o.h.@.g Y j d | L  .s u Z f 7 h p.b x.c n b.i.u.h S i.Y P.X.Z s M I.g.h 4.X.Z 0 6 Z  .h n s X.Z j !.b.K.}.K.b.f.@. .j h.",
"Z Z u * * p } d f g O %.T I d j s s L Z [ j Y (  . .g.@.m.@.@.s j f f S v.n S ` 8 S S x.n X.4.I.x.A x.v.v.g.C v.S A j f S x.g.S h.g.A g.Y Y  .d Z Y ~ / ~ p w a.",
"5.@.B f % s [ s d a q a L d s [ a h s C  .s s a f [ a a Y  .7.s j g i.n i X 8 ` x.t n ^.S P.h.U.l.T.|. Xb.S S S C  .K.b y.p.p.I.z.h.g.@.[ d F } 2 j j n t 0 h  .",
"x.j u.j p B O.X.B.Y - p s g a X.Z  .j n j L g w a Y d j I a.U.X.[ s Y h b i.c b i h A X.@.b.b. .l.^.g.X. .S n j a B %.C. .g.@.[ j [  ...K d B Z [ s a e t j j f.",
"/ c.f = p d [ Y F.@.e > e s Y d d B Z / T d L B s Y U T Y U %.4.6.s h h c b S h S X. .f s u  .u.P./ u.B f j a g r T u.B V s / j g p j [ [ Z d ; j h j 7 Z s d g ",
"Z b.%.s a j  . .@.B...a e s %.s s h f ..j B Z Y s d [ Y s.c.h.U.X.} h s g.b n @.4.X.u.b f b b.!.P./ l.j f j / j ' h.U.j @.X.P.V  .h h j [ s d f t.h I j  .h a g ",
"t y D.K d a g I ....[ 1 - a ,...s g S X.} X.X.[ a h [ a g v v I.h.h.Z  .p.S  .s h S Z g z c l P.A U.B.m.g N.B.l.X.d o.4.C C V } V > d d s h f f Y b.h.Y  .j g Y ",
"Y ( L.<.F a T b.f.{ h.| D L > e g  . .d Z s 1 d f h h f J R t b.S Z  . .a.C.T.d u f j ( i.c.m  .j @. .Y.Y j y.Z [ Y X.2.B p s A C B Z s j S u.f } X.h.p f Z j a.",
"u.I ( `.%.L [ %.;. . .@.| *., - d  .h.Y s d f f w ; p p g / c./ Z d ..q.#.%.q.B h B @. .B.g r t / c.b.H. .f n g.[ g.B 4.A s p p s 2.d h f h  .Z y...h.d s h g / ",
" . .Y .. .c.L.@...Z e a [ <.[ a > Y g.Y j s m ' > s h d a O v @.X.} [ #.[ h.4.A } < 4.} A Z g t f / K.N.%./ y.s.s.K.V V } @.@.h.g.P. .h Z g.h.[ X.O. .j  .j v c.",
"@.d j  .g ' N.h.a - p a ..q.w.%.Y a d F f s I [.5 p a @.s a  .Z 6.2.C B j l.7.} X.s V 2 h Z X.B p C.=.( B.P j  .C.L.7.B B 2.2.4. .A p.f t [ 5.d } %.d g a d d ( ",
"D.u./ (  .~ m.{ = . % U ..*.(.<.{  .d a L [ } c.w r y Y [ [  .| 3.3 } f g y.} ; B t.} j g.h 5.} [ ( I U %.} B s o.@.7.B V V } g.p = 7 h p s | } B s h b p s  .T ",
":.l.j n j I ' [ 1 * 0 c.L.B.(.$.L P @.P d <.o.X.h t.@. .X.@.%.%.7.2 V s s A X.s B @.s.Z P.U.P.O. .v a...[ d d d e.O.d [ V V V 2.s j t h b g.X.| [ = 5 j a s s.Y ",
"@.Y g. .j P y ..a 4 f ( F.(..X1.[ a j } [ @.h...j s.K.f.( ..Y %.e.B 4.2 u V V j } 5.i.u.i.c.U.6.s w P %.%...:.,.} } a B 3 3 < Z s s j Y / f h } B [ j f b.s.u.} ",
" .Z } j ..T ] L. .t 0 t P :.L.J.:.> e d y.^.K.%.h.Z X.@.C.K g oXo.A 7.2 u B X.} q.C.B.V  .d [ [ d g { o.B.[ o.h... . .b.C 2.p s > ; s s i s d B s Z s { Y n.L 3 ",
"a j { Y T  .{ C.!.c 0 m d.a T %.( a j s P.@.L Y  .Z X.d s o.B.l.X.} V V V X.d Z [ h.b. .6.C.[ }  .T B.T.5.3 V ~ g Y  .P.g.g Y / C A s p p u a j [ ..d L p L ..L ",
"~ Y [  .Y p Y C.t.g t t ` f I o. ...o. .Y ..{ ..o.} L a d d [ < 2 B 2  .@.g.B X.A X.u.Y h.E.@.X.d ..z.l.5.[  .Y e a h.i.x y @.P.C s.b.s h B g Y Z Y p d < - 1 d ",
"j [ s a e 7 g Y g g ..i.j I h.%.[ o.@.B { $.=.w.o. .s  .f. .s d 1 s X.g.s d d 5.Z @...o.Y.} [  .p X.} o.l.S.,.X.s  .b.d.d.H.%.h.X.h.@. .i.C j s [ [ [ d f p p z.",
"[ %.| a f = y / j j  .a.I ..Q.1.a T K.#.K *.{ | L ;. .Y o.@.o.d > Y l.A h X.L l.X.@.| ,.w. .h.j a d 4.P.@.Y.q. .d  .~ ^ B.H.l. .Y s.Z s.S j k.Y Y y.s.n f t m f.",
"[ K  .d d = a d p.[ ;  . .;.N.] #.T y Y %.<.6.} [ @.Y j 7.B B > - a U.s j [ @.%.o.[ 5.o.C._.%.B %.@.B d [ 3.| *. .Y r ..Y.@...C.[ s j P./ l.o...Y d Y g r b v < ",
"{ d [ d  .[ d < a Z a h a...Y d.{ B.a 4 P 1 L { K 4.j @.W.3 - 7 e e X. .O.[ s Z o.Z a m.@.8.| } V X.s < B B | #.P a g ..P.Z C.y.O.Y @.d.n @.@.@...A  .Y g / n g ",
"{ D L [ { F [ , s  .B f r j P %.:.q.P p [ } 1 d w Y X.B | } d a Z h h Y { O. .g j B , ..| } } } Z @.} } } d } ,.Y P Y $.O.f @.#.C.h. .s.j Z A a.s. .Y g g / a d ",
"P K d .. .@.1 p j h 5 t g j d %.U.!.Z.[ B < < <  .[ l.o.| ( N.B a d s s  . .l.a L L P o.O.j @.| X.B [ %.d ..%.q...U.l.P @.f / s.m.*.Z.%. .j S.c.g d L p a y a d ",
"g Y L D o.P L = f n f p 6 Y j j ..U.<.#.%.B p B } [ C.L.o...{ O.a d f p h 6.C p { | [ a ..{ ..#. .d 7 x  ./ =...Z.`.B.E.B.j Y #.Y *.N.~.C.m.h.:.s.( Y { a e a g ",
"R / a [ | 1 3 d 7 b.B d d j ,  .[ 8.| [ %...} d a [ { ,.Z.| U...$...f u B X.2 d d ,.{ Y %.%.%.{ P P a g ` x / e.r.Z.q.^.W., a @.d 9.=.m.R.!.{ q.k.m.' N.[ j d P ",
"g a.*.1 | G < d Y [ d X.B [ [ L [ e.5.o.} d O.[ [ %.} d { 6.C.[ [ s  .p d j P.X.d [ P 6.q.{ U. .e :.,.T x.g / o.{ ;.I E.e.[ ..Z.{ {  .{ o.,.| H %.T ( %.{ ( j Y ",
"/ Y {  .[ } H [ q.s g %.p d s.Y L >.%.< 1 } #.L [ ~.[ %.{ f.3.} < 7 u.U.X.l.A C  .B [ d s U { T J d.<.,. .~ j X.:. .K :.W.[ o.;.I 1.T L K { { { :.Z.C. .j f.' n ",
" .a ,.| 1 d [ ..l.|  .L L L d ..{ $.<.F s P #. .%._.} %.#.1 F , > w 5 Y 7.Z  .p j B  .u.` x r d.J.Z.| q.C.y @.L 3.*.[ 2 [ h.[ P I I ( a F { ..{ L ..Y T g v ' ' ",
"g Y { [ a [ a d ..[ d Y { Y d { [ Y ,.{ a P %.,.#.} ..Y d 1 1 % B p s l.B B .. .d ( / / ~ o ^ C.N.S.#...%.I <.{ B.:.{ P L ..d [ @.g ~ g d s Y Y g / ( ` k c Y a.",
"0 d Y L - d , > a a , ..x.r d a.Y I L %.[ a I S.X.{ Y j d } ..p Z X.s d [ V Y T u. .T Y g + _ F.U.,.| a ^ #.| [ Y B.Y ....H 3 { X.~ v t Y [ [  .Y h.' ( g / s.x.",
"( @.L a L d F > < p & P o.a g l.Y g h d P a ( F...j } 1 1 o.7.B B B s p d X.a g I Y U.B.%.x l R.r.e.[ d %.| %.L P N.[ %.Y 1 F .. .I Y P Y  .P L [ %.%.{ Y Y U.%.",
"z./ P j :.{ H < [ d p < s ..8 ` { g U %.d a Y U l.a } 3.[ X.6.h.X.d B d B h f d a I T .. .5 I w./.w.*.- s B [ Y j [ g d [ d - %.N.] m.%.Y [ L L T ..%.d [ Y j Y ",
"i.c./ d ..%.Y {  .G > d d F.O v ^ ~ a...~ Z...n.#.Y [ %.,. .U.s...} [ [ s j @.B a @.s.( y r  .} m.%.[ a Y @.j d s. .j 7 d.%.Y *.Z.T c.Y g  .U , K K { s f ~ }.x.",
"i.i.Z j ^ Y a P Y.G < 1 > w r z R ( ....I D...B.<.s s Y N.Z.X.g.@.d ..<.s [ e.| | s.$.Y g  .} Y ~.B 1 d Z [ Z d s.s l.j d #./ T T { n./ U u.L a Y - d h S  .d h ",
"j  . .@.h g a Y K.e.[ } = t w 8 g a [  .l.{ F d [ 1 L [ h m.I X.@.B.%.$.y.Y @...Y Y h...[ h [ Y %.j s  . .s @. .@.X.T.B.l.m.m.U  .j K Y I a.i.) K q d g n s 7 / ",
"m / p  .j f p j e.B > %.p g u.j ..j [ d } [ [ [ #., B 5.~ { [ d } a.[ L { { C.o.g @.@.X. .} | , p a B } j f j @...c.B.K...~ I / I Y j I j u.( {.Z  .} h j h C x.",
"( t j } Z h a / %.@.B | > w [  .B s B d [ d  .%. .P a [ ..a [ ..l.B.( e ^ N.K a  .U s V B } | B d [ 3 s g j V s ..C. .[ w p  .j v j Y e r s.j v v Y h f Z j x.L.",
"h g h d  .j g ( `  .X.[ 3 a p s j p } X./ d d  .[ ..a s [ > d %.@.@.*.T N.B.q.I ( a a j [ [ { U.e.7.} B s  .Z ..P %.B.s.a s f j j t.h g T ,.@.g.b h j c.i.j K.l.",
"@.Y S b.Z h j x x s > s } B j [ Z S h Z d  .Y { ,.B...c.i.u.T ..{ @...{ [  .B...~ Y d a a y.%.Z.0.| [ B [ j < p j Y K.j U ( j P.S h B j d h.j j h Z j c./ ( n h ",
"I.f.f g.h.f f x W , B d j s < B Z v.j n  .j T N.( ~.( g j !.h.L.I  . .Y [ X.d s Y h.a f @.| [ a Y X.6.[ j B p = Z h  .} Q.y.5.X.h X.A B j ` / j 5 Z j  .y.z ( b ",
"x.v./ u.j C / f Y s d 1 a [ s %./ d.g.y.g g [ a $.Y a y g ~.~.K.}.K.K.@.u. .j @. .T./ w f a 3.B h Y Y ..Z }  .d B Y @.O.q.g.h.a d l.s.T %.a.P.j f g u h x.b S c ",
"0 S n i.h X.@. .7 p < p p %.s n b.P.h...* a a d e s w { I I ..d @. .~ / j a e @. .S u * = > | d a  .g j h h u.h B B  .[ }  .b.@. .s.j Y ..g.s.f [ j S S g.S S '.",
"/ f h P.S l.g.Z = a  . .w p { y / j p l.B f Z d s @. .l.[ [ H } 3 j s n t 0 j  .4.g.Z f % s } s V Y h s s u h g d j a I { [ o.B 5.I...j L d s a O. .g.n c 4 8 ` ",
"0 h  .X. .l.d.s * a s B = f j g s d * Y j 7 [ d d B ....d d 3  .} s a f t j Z l.c.j y.s p  .X.o.B...g A s B B  .o.g.a a a } U.Z y. .Y  .[ Z d j } f.j h b S z b ",
"y. .Z f s p t.( j [ X.} p j 7 8 g p h p u p B 7 5 f Y X.d } 1 ; Z a j 5 Z d j / i.x.p 7 s B X.Y s.o.o.X.u s s ..Z j  .d L X.P.o.{ g Z P. .s [ j j Y g h f n / h ",
"4.X.i.b f n s. .s j  .B h Z p w a s j j a ; = p j j j Y [ p  .* % f j g  .h f a Y c.@.d p j | d U ..B.o.[ } X...s.o.X.o.P. .Z.E.Y  .@.g  .V Z  .A X.A s S h n  .",
"i t.Z g f c l g.s h C u 7 u.g.h.< s s e a d 1 d [ a j [ > F q.B g f Z [  ./ g j p y S.d d [ [ a d ..T L H 1 } } %.U.,.h.x g T l.( I. .s d  .f g.g.h.[ Z i.Z Z s ",
"u h Y s.( i.v u.j = ; ; 6 7 p ; p < p s > & 1 B > j ..d > [ q.p h p i 7 p Y I u./ ^ Z.,.1 { } ..L  ...s | | } C.K.K.Q.%.g Y  .j y.!.X.f g v v g.S j [  .d.h.!.B ",
"j B @.[ l.j t y I p d = 7 @ ; * > ; s 1 p # Y < = a .. . .[ @.p  .d g d h j f / i.I T XX0.B d L d / ( t ..[ | #.Y T %.Y d s e u.Y T f.d j n x.T s j ..,...o.e.B ",
"} s 4.} X.j g f p  .Z u Z Z V 1 3 = [ s i.p j h  .s Y d :.Y s Z a w j n  .j g c.g...Y ....Y U I  .L Y  .| D } d L K  .Y L X. .g a Y I j h q v  .%.} [ ..B o.X.B ",
"X.s V s h Z B B g } } < > * d } F # p d  .p u a Y d K d ..%.j x.n p p g a s d T %.s h / I u.' i. .K L %.;.{ !.R.L , [ } } d [ T Y d T Y j p Y j 4.2.B Z j l.4.} ",
"A  .V Z @.Z X.}  ./ ..[ 2 < # # s > s a j s a d a #.Y w a p a @.S 7 s / p s  .T Z.d.` (  .I  .u.l...@.Y T ;.{ <.d.e.e.e.B.d s g Y B. .h w f X.X.} V V u g  .} ; ",
"B [ t.j l.B.U.o. .v m.%. .d $ f f V = * d > > < > j a p [ p j s j t * b i s  .Y %.C.Y n d K m.v ~ %.%.Y t j ..n.R.} d  .a p P d e T @.X.h h S Y 4.3 } s s } A p ",
"V 3.( y. .c.h.4.s e Y ..X.S p h * $ > # d s - > 1 } [ [ s [ V h s v g f b.%.a.X.X.Z U.s.Y { I J Y  .h.Y p d [ #.%.d [ p p j a p p s p u h h h h X.V 4.s p C } s ",
"0.%.U.Z } j [ [ h g { o.o.d l.[ #   F [ ; < a s F H < 3 3 j t h d Z d ..( d.d F [  .X.d %.{ d L [ d Y j [  . ...[ 1 s > f Z a g a 7 t s u j v j j Z 7.B u Z } [ ",
"[ s.g. .@.h.L } [ { %.C.o.$ < 1 > G 3.G = 7  .[ , F 3 [ X.p 8 I d P.d L p L ..[ g j @.Y n.:.[ d g j [ w a  .{ [ Z [ [ , s A a f f f a h f j b 5 p Z } A V h.s B ",
"j A  .Y O.!.o.} d  .h.@.o.p [ f : | F d u I o.} , D 3.| a s p g j K - s w > d s v Y [ ..Y [ [ Y f d 1 7 s L w I d f.,.X.< B s w b j Y F.@.X.h u h  .B X. .g.2 X.",
"Z @...o.9.[ j @.p [ } o.@.l...d d ..%...s d B f d P 3.X.j d g d L L [ d w w s k. .[ d d Y [ } d p s > s d a j |  .g x z.} o.d p  .P. .f X.B p f h p B g.s h d | ",
"X.} | q.<...s.j a d | P.O.q.o.[ j [ Y ( @.Y t & 1 , a -  ...o.[ K %.S./ g t m d.[ %.| D P [ [ = p } [ [ d d H [ F c.^ j { f.X.( ( K.K.d.[ p s h f s l.A s @.L h.",
"X.[ | %.C.E.%.} O. .B d L 4.{ { Y Y y T ,.Z - > : : $ < <  .w.{ a a g y r v ` s Y P #.T d 1 F L Z ..,.o.3 3 3 -  .[ a s m./  .f.~.f.C.s.&.d d a w a U.s f } $.%.",
"@.B a f.@.8.| V V X.< < B F } { g a a @.%.Z Y F 1 1 : < p B [ %.| a Y d y x.n h  .L [ p a d D F F > 2 [ } | L a P  .L P } d ..T P %.I h.e.3 p - p p X. .@.[ s Z ",
"A B , ..O.} } } V  .} } } d [ B.K d L ..X.a  ...*.,.}  .d h [ a. .[ Y g g v g K *.G F a d o.| D F s a a e d K ( ..<.[ L { [ , d w Y h.V | [ d a j j j U { %.X.g ",
"L L L ..| d  .6. .B [ $.d ..{ o.%.>.;.P O.f j ( ] :.,.%.[ s C.a.g Y L a a f s K [ { D { P  .D < [ p 4 7 f d d ..U.B.B.[ [ < s < [  .k.o.| ( F.[ L d s a  .i.g.d ",
"| *.[ a #.{ P .. .d 7 v Y Y ....,.).l.B.B.g Y ..L ..N.S.C.l.@.a...T d Y e e a a J a a D F L d > s h f > 7 j d j @.B.,.%.%.[ p [ } [ f.L.o.....| a d f p j P.V s ",
"L <.P Y C...X.[ P P a g i.r T e.w.Z.,.T.q.< a %.d 8.=.m.T.B...| %.( U ..Y a a g x / d L | 1 1 s f b.d d j d a [ [ 8.| } ..O.} 3 a  .{ :.B.3.C.....X.a u j @.} d ",
"[ [ { q.7.{ w.} e %.*.I x.v ~ %.} %.I U.q.[ { ,.P {  .%.o.&.| |  .T U .. .Y a Y a T &.< H [ 1 d d [ d @.d F D d { &.5.6.[ d O.[  ...} D ..q.B.[ { d  .s d j 4.P."
};
