/* XPM */
static char *c88b794af2294bd8a09b2c4bef6e5c76QrZeWu8q0TQBzGcK[] = {
/* columns rows colors chars-per-pixel */
"80 80 225 2 ",
"   c None",
".  c #0C0C0C",
"X  c #060606",
"o  c #16120E",
"O  c #131313",
"+  c #1B1C1C",
"@  c #181818",
"#  c #221C17",
"$  c #24211E",
"%  c #232323",
"&  c #2B2B2B",
"*  c #2C2925",
"=  c #2F3030",
"-  c #323333",
";  c #3A3B3B",
":  c #373738",
">  c #7C1500",
",  c #741301",
"<  c #6A1202",
"1  c #552D16",
"2  c #562F18",
"3  c #573019",
"4  c #5B341C",
"5  c #5F381E",
"6  c #6A2B17",
"7  c #752C14",
"8  c #60391F",
"9  c #5C3923",
"0  c #543C2C",
"q  c #5B3E2C",
"w  c #583622",
"e  c #4E3E31",
"r  c #483C38",
"t  c #47362B",
"y  c #633C22",
"u  c #683624",
"i  c #793828",
"p  c #5B412B",
"a  c #5A463A",
"s  c #5B483A",
"d  c #564337",
"f  c #674024",
"g  c #694225",
"h  c #65442B",
"j  c #6D4629",
"k  c #6E482B",
"l  c #67482D",
"z  c #734C2D",
"x  c #664A37",
"c  c #764F30",
"v  c #6D513A",
"b  c #765031",
"n  c #7C5433",
"m  c #73543C",
"M  c #7B583B",
"N  c #77502F",
"B  c #4B4B4B",
"V  c #464646",
"C  c #554B46",
"Z  c #525353",
"A  c #575859",
"S  c #5B5A59",
"D  c #56514D",
"F  c #65554A",
"G  c #695647",
"H  c #765B49",
"J  c #6A5D54",
"K  c #755B53",
"L  c #764C40",
"P  c #6D625A",
"I  c #6E6055",
"U  c #796457",
"Y  c #7B634E",
"T  c #5D6060",
"R  c #636464",
"E  c #6B6967",
"W  c #756B64",
"Q  c #77726E",
"!  c #797674",
"~  c #7B7C7B",
"^  c #767676",
"/  c #6F7172",
"(  c #831600",
")  c #8A1A02",
"_  c #941A00",
"`  c #9D1C01",
"'  c #A41D01",
"]  c #A91E03",
"[  c #A82208",
"{  c #B4240B",
"}  c #B02206",
"|  c #AC2919",
" . c #BB2D1B",
".. c #BB2916",
"X. c #BE301F",
"o. c #803C27",
"O. c #B3322F",
"+. c #93210A",
"@. c #C33529",
"#. c #C73C37",
"$. c #C9312C",
"%. c #815937",
"&. c #845C3A",
"*. c #885F3C",
"=. c #8A613E",
"-. c #CB403C",
";. c #B93D46",
":. c #AD3F49",
">. c #D63F45",
",. c #875048",
"<. c #B04B52",
"1. c #8D6542",
"2. c #8A674A",
"3. c #906743",
"4. c #926A46",
"5. c #956E4A",
"6. c #986F4A",
"7. c #9B724D",
"8. c #96704F",
"9. c #856B5A",
"0. c #967151",
"q. c #9B7552",
"w. c #9D7A5B",
"e. c #A37A55",
"r. c #A47E5B",
"t. c #A37A54",
"y. c #897266",
"u. c #887D77",
"i. c #987D76",
"p. c #8C7067",
"a. c #AC6E62",
"s. c #C1414F",
"d. c #CD4546",
"f. c #D1484A",
"g. c #C74755",
"h. c #D64C56",
"j. c #D8525A",
"k. c #CE575A",
"l. c #E14F5E",
"z. c #D44F63",
"x. c #D75266",
"c. c #DC5363",
"v. c #DA546A",
"b. c #DA5B67",
"n. c #DE5F73",
"m. c #E1586C",
"M. c #E5566B",
"N. c #E45D75",
"B. c #E85D77",
"V. c #F45E7F",
"C. c #D1686F",
"Z. c #E9637E",
"A. c #E66377",
"S. c #E1717C",
"D. c #AB825C",
"F. c #978478",
"G. c #A48365",
"H. c #AA8869",
"J. c #AC8D71",
"K. c #AA877F",
"L. c #AF9075",
"P. c #B2957A",
"I. c #B09277",
"U. c #B08870",
"Y. c #EC6582",
"T. c #EE6988",
"R. c #F16A8C",
"E. c #F86489",
"W. c #E77588",
"Q. c #F46E93",
"!. c #FA6C92",
"~. c #F77299",
"^. c #FA749D",
"/. c #F57398",
"(. c #EF7D95",
"). c #FB76A2",
"_. c #FB7BA5",
"`. c #F67FA1",
"'. c #C67C82",
"]. c #7F8081",
"[. c #838383",
"{. c #8B8C8C",
"}. c #888787",
"|. c #968B87",
" X c #939494",
".X c #9B9C9C",
"XX c #999595",
"oX c #8F9090",
"OX c #B89B84",
"+X c #AD9B94",
"@X c #AF9490",
"#X c #BCA28A",
"$X c #A1A09F",
"%X c #A3A4A4",
"&X c #ACACAC",
"*X c #A6A8A9",
"=X c #B3B4B4",
"-X c #BCBCBC",
";X c #B8B7B7",
":X c #B4ACA8",
">X c #E88695",
",X c #F985AB",
"<X c #C3B8B5",
"1X c #DEA9AC",
"2X c #E7B2B6",
"3X c #DC8086",
"4X c #C1C0BF",
"5X c #BFC0C0",
"6X c #C3C4C4",
"7X c #CCCCCC",
"8X c #C8C6C6",
"9X c #CFCFD0",
"0X c #D3D3D3",
"qX c #DBDBDB",
"wX c #D9D7D6",
"eX c #D5D1CE",
"rX c #DFDFE0",
"tX c #E4E3E4",
"yX c #EBEBEB",
"uX c #E7E9E9",
"iX c #F3F3F3",
"pX c #FAFAFA",
"aX c #F6F7F8",
"sX c #EFF0F0",
"dX c #E1DCD7",
/* pixels */
"                                                                        OXOXI.J.                                                                                ",
"                                                                        OXJ.G.G.G.G.                                                                            ",
"                                                                        OXJ.0.5.0.q.w.q.                                                                        ",
"                                                                          J.0.1.=.2.5.0.0.                                                                      ",
"                                                                        #XL.0.1.*.&.*.2.2.2.                                                                    ",
"                                                                        #XJ.w.1.*.&.&.%.1.1.2.                                                                  ",
"                                                                        OXJ.P.0.*.&.%.%.n &.&.&.                                                                ",
"                                                                      #XP.P.P.0.*.&.&.%.M n %.%.                                                                ",
"                                                                    #XOXL.P.L.5.=.&.&.M %.n n n c                                                               ",
"                                                                  #XOXP.P.I.G.4.=.&.%.%.n n N N c c                                                             ",
"                                                                #XOXP.P.P.J.w.=.=.&.&.%.%.n b b z j                                                             ",
"                                                              OXP.I.P.I.J.G.0.=.&.&.%.%.n n b N z g                                                             ",
"                                                          OXP.I.L.L.J.G.G.w.1.=.&.&.%.%.n n N z k g y                                                           ",
"                                                        L.L.G.H.H.G.G.w.w.4.=.=.&.&.%.%.n N N z k g y                                                           ",
"                                                      J.G.r.r.r.r.w.w.w.8.=.=.&.&.%.%.n n n N z z y y                                                           ",
"                                                    r.w.q.0.w.q.0.q.0.8.=.=.&.&.%.%.n n N N z z j y y                                                           ",
"                                                  w.q.5.4.4.5.5.5.5.4.=.*.&.&.%.%.%.n n b b z z g y 4                                                           ",
"                                                0.5.2.1.1.1.4.4.4.3.=.*.&.&.%.%.n %.n N b z z j y 9 4                                                           ",
"                                                4.3.*.*.*.*.=.=.*.*.&.&.&.&.%.n n n n N c z j y 8 4                                                             ",
"                                                *.*.&.&.*.*.*.&.&.&.&.&.%.%.%.%.n b b c z g y y 4 y                                                             ",
"                                                %.%.%.&.&.&.%.%.&.&.%.%.%.n %.n n b z j y y y 3 8 %.1.&.M                                                       ",
"                                                %.n %.%.%.%.%.%.%.%.n %.%.n N b z j j g y y 5 5 b *.&.&.%.n b b                                                 ",
"                                                n n %.%.%.%.%.%.n %.n n n b N z j y y y 5 2 5 b &.&.%.n n c c c z z                                             ",
"                                                  z c N N %.n %.n n n b z z j j y 8 8 8 5 y %.&.%.n n c c z k k z z z                                           ",
"                                                    z N c c N N z z z k j y y y 4 4 4 f b &.&.%.n n z z k j j j j j j z                                         ",
"                                                    5.N j j j j j j g y y y 4 8 y z &.=.1.&.%.n b c k j j j f g g g g j                                         ",
"                                                H.D.D.e.*.c g y y y y y y y c %.=.1.=.=.%.%.n c G P E W J x f f g g g g j                                       ",
"                                              D.D.D.D.D.e.t.6.3.*.&.&.1.4.4.5.4.1.=.&.%.n b m E [. X.X.XoX^ J h g g g g g g                                     ",
"                                          D.D.D.D.r.t.t.t.t.t.7.7.7.6.6.4.4.1.*.&.&.%.n n m Q XX=X6X7X7X5X*X{.J h g g g g y                                     ",
"                                      D.r.r.e.r.t.t.t.t.7.7.7.6.6.4.4.3.1.*.*.&.%.%.n n m W .X6XqXtXuXuXrX0X=X{.G y g g g y                                     ",
"                                    e.e.t.t.t.7.t.7.7.6.6.6.6.6.4.1.=.*.*.&.&.%.%.n n b J  X6XrXuX7X.X*XqXuXwX=Xu.x g g f y                                     ",
"                                  q.t.7.7.7.7.7.6.6.6.6.4.3.=.=.=.=.*.&.&.&.%.%.%.n n v u.;XrXuX.X% X . B 7XuX0X%XP g g y y                                     ",
"                                7.6.7.7.6.6.5.5.6.4.4.=.=.=.=.=.*.*.&.&.&.&.%.n %.n N K .X0XuX;X+ . O . X B tXtX5X[.l f 9 8                                     ",
"                              6.6.6.6.5.4.4.=.3.=.=.=.=.=.=.=.&.&.&.&.%.%.%.n %.n n N Q ;XtXtXZ X O + + O . .XyX0X$XF y 5 4                                     ",
"                            5.4.=.6.4.=.=.=.=.=.=.=.=.=.=.=.&.=.&.&.&.&.%.%.%.n n N m }.7XyX-X@ E $XB % + . V uXtX=XE 5 4                                       ",
"                          4.3.=.=.=.=.=.=.=.=.=.=.=.=.=.=.=.=.&.&.&.%.%.%.%.n n n N G .XwXyX[.% tXpX$X* % O % 7XuX6X! 5 3                                       ",
"                        =.1.=.=.=.=.=.%.%.=.=.=.=.&.N l p 0 p l b %.%.M n n n n b N I *XqXyXS O {.5XR = & + O *XyX9X}.0                                         ",
"                        =.*.*.&.=.%.%.=.=.=.%.M 0 # o o @ O O O o t m n n n n N N c I &XtXtXV O % - : : & % . oXsXwXoXq 2 3                                     ",
"                      &.&.&.&.%.=.n %.=.%.%.Y E $ Z Z & - - & % . $ u.W M n N N N k P =XtXtX; O & - ; ; = % . [.sXwX Xp 3 2 2 2 2                               ",
"                      &.%.%.%.%.n =.%.n =.U  XXXR aXuXZ ; ; - % O % =X=X|.M N N N z P =XrXtX; O & = ; : = % . }.yXwX Xp 3 4 3 3 2 2                             ",
"                      %.%.n n %.n n %.%.Y oX;X4XA -X&X; - - & % . = rXtX8XF.z z z z I &XtXuXV O & = : - = + .  XsX0XoXq 9 4 4 4 3 3 2 2                         ",
"                      M n n n %.n %.n %.M }.$X&XV O $ $ * * * $ O J dXwX<X9.z z z z G $XqXyXE . + & - = & + O =XyX7X[.h y y 4 4 3 5 3 2 2                       ",
"                      n n n n n n n n n n M M 2.m h g l k k z k k n H &.n z z z z k v  X0XyXXX. + % & & % O & wXuX5X! y y y y y 4 4 5 2 2 2                     ",
"                      b N N N N n n n n n n N n n n n n n n m b b N z z z z k k j j h ].8XuX7X% O + % % @ X T yXrX&XJ y g y y y y 4 4 2 2 2                     ",
"                      N c N N N N n N N n N n b b n b b b b c c b z z z z z j j f y 8 P =XqXuX/ X O @ @ . @ ;XyX9X Xv g g y y y 8 8 4 5 3 2 2                   ",
"                      N z k c c c N N b b b b b N b N N N c z z z z z k j j f f 8 5 5 s  X7XuX0X; X . . X ~ yXrX;X! h g g g g g y 8 4 4 4 2 2                   ",
"                        k k z z c c z b b z b c b N z z z z z z z j j f y y 8 5 4 3 3 9 Q &XwXuX7XA % & [.tXtX7X.XF g g g g g y y 8 8 4 3 2 2                   ",
"                          g j k k k z z z z z z z z z z z z z j j f y y 5 4 4 3 4 f k z G }.;XqXuXtX9XwXuXtX9X*XQ l g g g g y y y 8 4 4 4 2 2                   ",
"                          g y g y k j k k k z j z j j j g g y y y 8 8 4 2 8 y j b n b b c P oX=X9XrXrXrXqX8X*X~ x h g g g g y y 8 8 8 4 2 2 2                   ",
"                              j y y y y y y u y y y y y y y 4 4 3 2 8 y z n %.n n n b b z c P }.$X=X-X-X&X.X~ v g g g g g y y y 8 4 4 4 4 2 2                   ",
"                            e.7.*.z y y y 5 4 5 8 4 4 4 4 4 y y z N n %.%.%.n n b b b z z z k G Q ].{.{.~ E x f g g g g y y y y 8 8 4 4 2 2 2                   ",
"                        q.q.7.7.6.5.1.&.n z j j j j z z n n %.&.&.%.%.%.%.n n n n b c z z z z j l G F F x h g g g g y g y y y y 8 8 3 4 2 2                     ",
"                    7.6.6.6.4.3.1.1.*.*.*.&.1.&.*.&.=.&.%.&.&.%.%.%.%.n %.n n b b N z z z j z j j g g g g g g g j g y y y y y 4 4 4 4 3 2 2                     ",
"                  4.4.3.=.=.*.*.&.&.&.&.&.&.%.&.&.&.%.%.&.%.%.%.%.%.%.n n n N N N N z z z j j j j g j u g g g g g y y y y y y 4 8 4 3 2 1 8                     ",
"                3.3.=.*.&.%.%.&.%.%.&.&.&.%.&.c a s s s s s d p 6 7 7 7 7 7 7 7 7 7 7 7 6 6 6 6 0 e e e 0 e e e 9 y y 8 y 5 4 4 4 3 2 2 4 b N j                 ",
"              1.*.&.&.n %.%.n %.%.%.%.%.%.%.%.a V Z S A A A A a < < , > ( ( ( ( ( ( ( > > , < < C A A A A A Z V 0 y 8 y 4 4 4 4 4 2 2 2 z &.%.n z g             ",
"            *.%.%.n %.N n %.n %.%.%.n %.n %.%.c B R ~ ].].[.u.9.> ( ( _ _ _ _ _ _ _ _ _ ) ( > , W ].].].[.^ T C 9 5 8 5 4 4 4 3 2 2 2 j %.&.%.%.%.z g           ",
"          &.%.%.n b b n n n n N n %.n %.%.n n %.G T ^ oXXXXX.Xp.( ) _ ` ' ' ' ] [ } ' ' ` _ ) ) i..X.X.X X^ S 0 9 4 4 4 4 3 3 3 2 2 g %.%.%.%.%.n n j y         ",
"          &.%.z N b b b b N n n n n n n N %.N %.b F E {.%X*X*Xi._ ' ' ] } { { { { { { } } ' ' +.|.&X*X$X}.E s 5 4 4 4 4 3 3 3 2 4 j n n n n n n n b k y         ",
"        %.n c z z z b b b n N N N n N n N n n N b c J ~ XX&X;X|.' ] { ............ .....{ { ] [ @X=X&X X^ D 9 4 4 4 3 3 3 3 3 8 z n n n N n n n n b z y y       ",
"        N c z z z z z z c c c N c b n b n b b b b b m J ].$X;XOX[ {  .X.@.@.@.$.$.$.@.X. ...{ | #X;X.X].F 9 4 4 3 3 3 2 3 8 j z N N b b n b b b z z j y 8       ",
"        c z z j j z z z z z c c c c c c c c c c b c c c I [.%XK.{  .@.@.$.#.#.$.#.f.-.-.@.@. .| @X%X~ F 4 4 4 3 3 1 2 8 g z z z z z z c z z N z z z j y 8       ",
"      z z j j z z j z z z z z z z z z c z z c z z c c z z J F.p.| -.-.-.d.d.f.#.#.m.j.-.#.#.O.| i.! C 4 3 3 3 3 2 4 8 j j z z z z z z z z z z z j g g 8 4       ",
"      z j j g j j j j z j j z z z z z z z z z z z z z k k l v ,.O.k.f.f.h.h.l.>.h.C.b.h.f.d.$.O.L q 3 2 2 2 2 4 8 g j j j j j j z j z j z z j j j g y 8 4       ",
"      k j j g j j j j j z j z j z z j z z j z z j z z z j j j o.O.3Xn.h.j.c.l.h.l.S.A.c.h.f.>.O.6 3 2 2 2 3 y g g g g g j g j j j j k j j j j g y y 8 5 2       ",
"        j g g g j g g j j j j j j j z j z j z j j j j j j j j o.<.>XS.c.m.b.B.l.M.W.W.m.c.h.s.O.8 3 2 4 y g g g g g g g g g g g j g g j g g g 8 8 8 4 4 2       ",
"        g g g g g g g g g j j j j j j j j j j j j j j j j j j o.>.2X(.v.N.A.Z.M.B.(.W.A.m.v.g.O.6 4 9 y y f f y y f g y y f f y y y g y y f 8 8 8 5 4 2 2       ",
"        g g g f g g g g g g g j j g j g j j j j j g j g g j g o.<.2X>XN.Z.Y.T.B.Z.,X(.Z.N.m.h.;.u u y y y y y y y y y y y y y y y y y 8 8 8 8 8 8 4 4 1 1       ",
"      yX9.8 g g g g g g g g g g g g g g g g g g g g g g f g f i ;.>XQ.Y.T.E.R.E.E.,X>XE.A.N.g.;.u y 8 y y y 8 y y y y y 9 y y y 8 y y 8 8 8 8 5 4 4 3 9 +X      ",
"    iXiX+Xg g g g g g g g g g g g g g g g g g g g g g g g f g i <.W.W.T.R.Q.~.E.R.,X,XR.Y.A.z.;.u 4 4 4 4 8 5 4 8 8 4 8 8 y 4 y 8 8 8 8 8 5 4 4 4 3 2 Y uXiX    ",
"pXiXuXqX8Xm 8 g g g g g g g g g g g g g g g g g g g g f f 8 8 i ;.Y.R.R.Q.~.).!./.,X,XR.E.Z.x.>.i 3 4 4 4 4 4 4 4 5 4 8 4 4 5 5 5 4 4 4 4 4 4 4 4 3 9 :XtXyXiX  ",
"pXsXtXqXeXF.8 f y g g g g g g g g g g g g g g 8 g 8 f 8 8 5 5 i :.Y.Y.R.Q.).).~.^.,X,X!.R.Z.x.<.6 2 3 4 3 4 4 4 4 4 4 4 4 4 4 4 4 4 4 4 4 4 3 3 3 3 p.7XqXtXsXpX",
"aXsXtXqX7X4X9.4 y y y g g g g y g j g g g y y y 8 8 5 4 5 4 4 u s.v.E.R.~.).).).)._.).~.R.Y.x.:.u 2 2 2 3 3 3 3 3 4 3 4 3 4 4 3 4 4 3 3 3 3 3 2 2 9.5X9XqXtXiXpX",
"  aXsXtXqXeX-X9.4 8 8 y 8 8 y y 8 8 8 8 8 8 9 5 5 5 4 4 3 3 2 u :.z.Y.R.~.~.).).).).).Q.R.Y.z.:.r r 0 t 3 2 2 2 2 2 2 2 3 2 3 3 3 3 3 3 2 2 1 9 i.6X0XqXtXiXaX  ",
"    aXiXyXtXqX8XF.y 4 4 8 8 4 8 8 8 8 4 4 4 4 3 3 3 2 3 w e d C :.z.Y.T.R.~.).).).).~.R.Y.N.z.:.B B B Z Z C C q w w 2 1 1 1 1 1 1 1 2 1 3 h 9.:X0XqXtXyXiX      ",
"          iXsXuXqX<Xp.l 4 2 2 2 1 2 2 3 2 3 2 w q x F J R R T T K ;.z.Y.R.Q.~.~.~.~.Q.T.Y.x.;.R T R R E E / ^ ^ ! y.Q U U K G H H U 9.i.$X<XwXtXuXyXiX          ",
"                iXsXuXeX:XK.y.Y H H H H U y.u.|.oXoX{.}.[.].~ ~ ! <.g.Y.Y.Y.Q.Q.Q.Q.T.Y.v.>.<.~ ~ ~ ].[.}.{.oXXX.X%X*X&X&X;X-X8X8X9XwXrXuXyXyXiX                ",
"                        aXiXyXtXdXwXwX0X7X7X6X5X;X=X&X&X*X$X$X.X.X|.g.g.z.Y.Y.R.Y.Y.Y.z.>.a. X.X.X$X%X*X&X&X=X;X5X5X7X9X0XqXqXtXuXyXiXiX                        ",
"                                    sXyXyXuXuXtXrXqXqX0XeX9X7X8X6X6X=X'.g.g.z.x.x.z.;.g.'.<X6X8X8X7X0X0XwXqXqXtXtXtXuXyXsXiX                                    ",
"                                                        sXyXyXyXuXtXtXrX1XC.>.g.;.;.'.2XuXuXtXyXyXyXyXiX                                                        "
};
