/* XPM */
static char *_56bdbc5359b4f2f8ae5810eb8e093eeBrMjaJIrQklwRWpa[] = {
/* columns rows colors chars-per-pixel */
"80 80 113 2 ",
"   c None",
".  c gray45",
"X  c gray50",
"o  c #818181",
"O  c #848484",
"+  c gray52",
"@  c #868686",
"#  c gray54",
"$  c #8E8E8E",
"%  c gray57",
"&  c #929292",
"*  c #939393",
"=  c gray59",
"-  c #979797",
";  c #989898",
":  c #9A9A9A",
">  c #9B9B9B",
",  c #9D9D9D",
"<  c gray62",
"1  c #9F9F9F",
"2  c gray63",
"3  c #A2A2A2",
"4  c gray64",
"5  c #A4A4A4",
"6  c #A5A5A5",
"7  c gray65",
"8  c gray66",
"9  c #A9A9A9",
"0  c #AAAAAA",
"q  c gray67",
"w  c #ACACAC",
"e  c gray68",
"r  c #AEAEAE",
"t  c #AFAFAF",
"y  c gray69",
"u  c #B1B1B1",
"i  c #B2B2B2",
"p  c gray70",
"a  c #B4B4B4",
"s  c gray71",
"d  c #B6B6B6",
"f  c #B7B7B7",
"g  c gray72",
"h  c #B9B9B9",
"j  c gray73",
"k  c #BBBBBB",
"l  c #BCBCBC",
"z  c gray74",
"x  c gray",
"c  c gray75",
"v  c #C0C0C0",
"b  c #C1C1C1",
"n  c gray76",
"m  c #C3C3C3",
"M  c gray77",
"N  c #C5C5C5",
"B  c #C6C6C6",
"V  c gray78",
"C  c #C8C8C8",
"Z  c gray79",
"A  c #CACACA",
"S  c #CBCBCB",
"D  c gray80",
"F  c #CDCDCD",
"G  c #CECECE",
"H  c gray81",
"J  c #D0D0D0",
"K  c gray82",
"L  c #D2D2D2",
"P  c LightGray",
"I  c gray83",
"U  c #D5D5D5",
"Y  c gray84",
"T  c #D7D7D7",
"R  c #D8D8D8",
"E  c gray85",
"W  c #DADADA",
"Q  c gray86",
"!  c gainsboro",
"~  c #DDDDDD",
"^  c gray87",
"/  c #DFDFDF",
"(  c gray88",
")  c #E1E1E1",
"_  c #E2E2E2",
"`  c gray89",
"'  c #E4E4E4",
"]  c gray90",
"[  c #E6E6E6",
"{  c #E7E7E7",
"}  c gray91",
"|  c #E9E9E9",
" . c #EAEAEA",
".. c gray92",
"X. c #ECECEC",
"o. c gray93",
"O. c #EEEEEE",
"+. c #EFEFEF",
"@. c gray94",
"#. c #F1F1F1",
"$. c gray95",
"%. c #F3F3F3",
"&. c #F4F4F4",
"*. c gray96",
"=. c #F6F6F6",
"-. c gray97",
";. c #F8F8F8",
":. c #F9F9F9",
">. c gray98",
",. c #FBFBFB",
"<. c gray99",
"1. c #FDFDFD",
"2. c #FEFEFE",
/* pixels */
"                                                                                                                                                                ",
"                              | [ [ [ _ _ ^ W W W W W W W                                                                                                       ",
"                        | | | [ [ [ [ [ [ [ _ _ _ _ _ _ _ ^ ^ ^                                                                                                 ",
"                    | | | | | O.O.O.O.O.O.| O.| | | O.O.O.O.| [ _ _ _                                                                                           ",
"                | | | | O.$.O.$.$.&.$.$.&.&.&.$.&.&.$.$.$.$.$.$.O.| [ [                                                                                         ",
"              | | | $.$.$.$.&.&.&.,.,.,.&.| _ ^ ^ [ O.&.,.&.&.&.&.&.O.O.[ [                                                                                     ",
"            | | | O.O.O.$.,.&.,.,.&.^ m 0 , , , 3 7 0 f G [ ,.,.,.&.&.&.O.| |                                                                                   ",
"          | O.^ T O.$.| $.&.,.,._ f , , 0 y l M M A M l f y M | &.,.,.&.&.O.[ |                                                                                 ",
"        | | | | W K W _ _ $.,.G 7 3 t l A K T W ^ ^ ^ ^ W K m l ^ &.&.&.$._ [ O.|                                                                               ",
"      [ | | O.O.$.O.^ K W $.G 3 t m G T W ^ _ [ | | | [ [ [ ^ K m T $.[ _ O.&.$.$.|                                                                             ",
"    [ [ | | | O.O.&.&.&.&.W 7 t M K W _ [ | | O.O.O.O.O.O.| | _ W M T $.&.&.&.&.&.&.|                                                                           ",
"    [ [ [ | | O.O.&.&.,.| k y m K W [ | O.O.O.O.$.O.$.O.$.O.O.| [ W G ^ $.$.$.$.&.,.&.[                                                                         ",
"    _ _ _ [ | O.$.&.,.$.T f m G W _ | O.O.O.O.$.$.$.$.$.$.$.$.$.| [ ^ T | $.O.$.&.2.2.$.                                                                        ",
"  _ _ _ _ [ | O.$.,.&.| M l G T ^ [ | O.O.O.$.$.$.$.$.$.&.&.$.$.O.O.[ _ _ O.O.O.$.&.2.,.[                                                                       ",
"  ^ ^ ^ _ _ [ O.&.2.,.^ m M K ^ _ [ | O.O.$.$.$.&.&.&.,.&.&.&.&.$.O.O.[ ^ | O.O.O.$.,.2.$.                                                                      ",
"  _ W W ^ _ [ | &.2.&.T l A W W _ [ | O.O.$.$.&.&.,.&.&.,.&.,.&.&.$.O.| [ _ O.O.O.O.$.,.&.                                                                      ",
"  ^ W W ^ _ _ | &.2.$.G l K T W _ [ | O.O.$.$.&.&.&.,.&.,.,.,.&.&.$.$.O.| _ | O.O.| O.$.&.[                                                                     ",
"  ^ T T W _ [ | $.&.O.G m K W ^ _ _ | | O.$.$.&.,.&.,.,.,.,.,.&.&.&.$.O.O.| [ O.| | | O.$.|                                                                     ",
"  ^ K K W ^ _ [ O.O.[ G m K ^ ^ _ [ [ O.O.$.&.&.&.,.,.,.,.,.,.,.,.&.$.$.$.| [ $.| | [ [ O.|                                                                     ",
"  ^ G K W ^ _ _ [ | _ G M W ^ ^ _ [ | | O.$.&.&.,.&.&.,.,.&.&.&.&.&.$.$.$.| [ O.| | _ [ | |                                                                     ",
"  ^ A G T ^ ^ _ _ _ ^ G M T ^ ^ _ [ | | O.O.$.&.,.&.,.&.,.,.,.&.&.&.$.$.$.| | O.O.[ ^ ^ [ [                                                                     ",
"  W G M K W ^ _ _ ^ W K A K W _ _ [ | O.O.$.$.&.&.&.&.,.&.&.&.&.&.$.$.O.O.| [ $.O.[ ^ W _ [                                                                     ",
"    G l G W ^ _ ^ ^ T T A A W ^ _ [ | | O.O.$.$.&.&.,.&.&.&.&.$.$.$.$.O.O.[ | $.| _ W T _ [                                                                     ",
"    W l M T ^ ^ ^ ^ T K K A K ^ _ _ [ | O.O.O.$.$.$.$.&.&.&.$.$.O.O.O.O.O.[ O.| | [ ^ T [ _                                                                     ",
"    _ M l K W W W W W T K K A T ^ _ [ | O.O.O.$.$.$.$.$.$.$.O.O.O.O.O.| | | $.[ W ^ T G _ _                                                                     ",
"      G y A W _ [ [ T G T K G G T ^ _ [ | | | O.O.O.$.O.$.O.O.O.O.O.O.| | $.O.[ ^ T G T [ ^                                                                     ",
"      W f l G G G K K T W T T G G T ^ _ [ | | | O.O.O.O.O.| | O.| | | | O.| [ _ ^ T K ^ [ ^                                                                     ",
"        m f M K W ^ ^ ^ W W W T T K K W _ [ | | | | | | O.| | | [ [ | | | [ _ ^ W T T [ [                                                                       ",
"        G f l K W ^ ^ _ ^ W W ^ W W T T T T ^ ^ _ _ [ [ _ [ _ _ _ [ [ [ [ _ ^ ^ T T ^ [ ^                                                                       ",
"          M y m K W ^ ^ ^ ^ ^ ^ ^ ^ ^ ^ ^ ^ W ^ ^ ^ ^ ^ _ _ _ _ _ _ _ [ _ _ ^ W W ^ | ^                                                                         ",
"          ^ l f A T W W ^ ^ ^ ^ ^ _ _ _ _ _ _ [ [ [ [ [ [ [ [ [ [ [ [ [ [ _ _ _ _ O._ M                                                                         ",
"            W k k A K W ^ ^ _ _ _ _ [ [ _ [ [ | [ | [ | | | | O.O.| | | [ [ [ O.O.T k K                                                                         ",
"            ^ A l m A K W ^ _ [ [ | [ | | O.O.O.O.O.$.$.$.$.$.O.O.O.| O.O.&.$.T A l K                                                                           ",
"              W l l M A K W ^ _ [ | | O.O.O.O.$.$.$.$.$.$.O.O.O.O.| O.O.O.$.^ T ^ _                                                                             ",
"                K y t k M K T ^ | | | O.O.| O.$.$.$.$.$.$.O.O.O.| | [ ^ W K G W [                                                                               ",
"                  K y 7 0 y f K ^ | | | O.O.| [ _ ^ T G A l l m K _ ^ ^ ^ A k A T _                                                                             ",
"                  [ W K T ^ ^ A m W _ ^ M f y t t t y k l M G K W [ [ | [ _ _ | O.O.O.O.O.$.$.$.$.$.&.$.&.                                                      ",
"              _ O.| [ _ _ T M k f M K W m y m K W _ [ | O.O.O.O.$.$.$.$.$.&.&.&.&.&.&.,.&.&.,.&.,.&.&.,.&.,.&.,.,.&.,.&.,.&.                                    ",
"              _ W _ | | [ ^ K K T ^ [ [ [ [ | | O.O.O.O.O.O.O.$.$.$.$.$.$.$.&.&.&.,.,.&.,.&.&.,.&.,.&.&.,.,.&.&.,.&.,.,.,.,.,.,.,.,.,.,.                        ",
"                W G K ^ [ | [ [ [ [ O.O.O.O.O.O.| O.| | | O.O.O.$.O.&.&.&.,.&.,.&.,.&.&.,.,.,.&.,.&.&.,.&.&.&.,.,.&.&.&.$.&.&.&.&.&.&.&.,.,.,.&.&.              ",
"                W K A M G W _ [ [ O.O.$.$.O.| [ | | | O.O.O.$.$.&.&.,.&.,.2.2.2.2.2.2.2.,.,.,.,.&.,.&.,.,.&.,.&.&.&.&.&.&.&.&.$.$.$.O.$.$.&.&.,.&.,.&.&.        ",
"                  K A m m M G W _ [ O.$.$.$.| [ | | O.| O.O.O.$.$.$.O.$.O.O.| | | | [ [ [ [ _ _ [ [ [ [ [ | | O.$.$.$.$.&.&.$.$.$.$.$.O.O.$.$.$.,.,.,.,.&.      ",
"                    A m l m m M K ^ [ | $.&.&.$.O.| [ _ ^ T G A m m m l M A K K W ^ ^ _ _ [ _ [ [ _ _ _ _ ^ ^ W W W W T T W ^ _ [ | O.| O.| O.O.&.2.,.2.2.&.    ",
"                        l l k l M G T ^ [ O.$.,.,.&.&.| T m k f k l M G K W _ [ | O.O.$.$.&.&.$.&.&.$.$.O.$.O.O.[ [ _ W T K G A A G K ^ [ | O.&.,.2.2.2.&.$.    ",
"                          l k k l A G T W ^ _ | O.$.&.,.,.,.&.$.| | [ [ | | | $.$.$.$.&.&.,.&.,.&.&.&.&.&.&.&.$.$.$.$.O.O.| | _ W T W [ $.,.2.2.2.,.&.$.| [     ",
"                              k l m G K T T ^ ^ _ _ [ | | O.$.&.&.,.,.2.2.2.2.2.,.,.,.,.,.,.,.,.2.,.,.2.,.,.2.,.,.2.2.,.2.,.,.,.,.,.2.2.,.,.&.O.| [ _ _ _ [     ",
"                                  , f M G T W W ^ _ _ _ [ _ [ _ | [ | | O.O.$.&.&.,.&.,.,.,.,.,.,.2.2.,.2.,.,.2.,.,.,.,.,.&.&.&.$.O.O.[ _ ^ W W W W W W _       ",
"                                  . O = t m K T W ^ _ _ [ [ [ [ [ | [ | [ | | | O.| O.O.| O.O.| | | | | [ [ [ [ [ _ _ _ _ ^ ^ W W W K K K G K K T K K           ",
"                                  o O o o = t k A K W ^ _ _ [ | | | O.$.$.$.$.&.&.$.&.$.$.O.O.| | [ [ _ ^ ^ ^ W W W W T T K K K G A A M A A A M l y             ",
"                                  & & $ O # > 7 t y k m A K T ^ [ | | O.$.&.,.2.2.2.2.2.,.,.&.$.O.O.[ [ _ ^ ^ W T T K K G A A A M l l k f y y t t               ",
"                                  3 0 7 , $ > 0 f k f k k k l M M G K W ^ [ | | O.$.$.O.O.O.| | _ _ ^ W T K G G A m m l k f y y t 0 0 t y f k k                 ",
"                                  t k l f 3 > 0 y l l m M A A A G G K G K K K T T T T K G A A M M l k k k f y y t t 0 t t 0 t t y f k l m M M                   ",
"                                  f l A M k 0 3 y l m M A G K K T W W ^ ^ ^ _ _ _ _ ^ W T K K A A M m l m k l k k k k k k l l m m M A A G K                     ",
"                                    M G G A l t 0 f l M A G G T W W ^ _ [ [ | O.O.| | [ _ _ ^ W T T K G G M M M m m m M M M A A K K T W W                       ",
"                                    M K T T G l t t f l m G G T T ^ _ _ [ O.$.$.&.&.$.O.| [ _ _ W W T K K G G A A A G G G K K W W W ^ ^                         ",
"                                    M K W W T A l t y k l M G K T ^ ^ [ | | $.&.,.,.&.$.O.| [ _ ^ ^ W T K K G K G K K K T W W ^ _ ^                             ",
"                                      K _ _ ^ K M f y f k m M G K W _ _ [ O.$.$.,.&.&.$.| | [ _ _ ^ W K K K K K K T T T W ^ _ _ _                               ",
"                                      K _ O._ T G m f y k l M A K T W _ [ | O.$.&.$.$.$.O.| [ _ ^ W T T K T K K T T ^ ^ _ _ _                                   ",
"                                      G _ $.| ^ K A k f f k m M G K W ^ _ [ O.O.O.$.O.O.| [ _ _ ^ W T T T T T T W ^ _ _ [                                       ",
"                                        W O.$.^ T A m f f f l m M K K W ^ _ [ | O.| | [ [ [ _ ^ W W W T T W W ^ ^ _ _ [                                         ",
"                                        G | O._ T G M l k l l l M A G T W ^ _ [ [ [ [ [ _ ^ ^ ^ W W ^ W W ^ ^ _ [ [                                             ",
"                                      t M _ | _ T G M l l l l m m A A G K W W ^ ^ _ _ ^ _ ^ ^ ^ ^ ^ ^ ^ ^ _ _                                                   ",
"                                      3 l W _ _ W K A m l l l l m m M G K K T W W W ^ W W ^ ^ ^ ^ ^ W W T T T                                                   ",
"                                      , y K W ^ T K M m l k k k l l m A A G K K T T T T W T T T G A M A G T T                                                   ",
"                                      = t G W W T G A M l f y f k k l M G T ^ ^ W W T K G G M M A M M A K T W                                                   ",
"                                    & > 0 M K T K G M m k y y f k l M G T _ O.O.O.[ _ _ W T K K G G G K T T ^ _                                                 ",
"                                    = > 0 m K K K A M l f f f k l m A G W [ $.$.$.| [ _ ^ T K T K G G K T W ^ _                                                 ",
"                                    , 3 0 m A G G M M k f y f k l M A K W O.,.,.$.O.[ [ ^ W T K K K G K K T ^ _                                                 ",
"                                  0 0 t y m M A A M l k y f f f l M K T _ O.,.,.&.O.| [ ^ W T K K G G K K W W _                                                 ",
"                                    f f k l A G A M m k f y t f l M G T _ O.2.2.&.$.O.[ _ W T K K K K G K T T ^ |                                               ",
"                                    k m m m M G K G A m l f y f l M G T _ $.&.2.,.$.O.[ _ ^ T K K K G G K K T W _                                               ",
"                                        M A A A G T T K A M l k m M K W _ $.,.,.&.$.O.[ _ ^ T K K G K G G K K T ^                                               ",
"                                          G G K K T W W T K G A M A K W _ $.,.,.&.$.O.| [ ^ W K K G G G G K K T W                                               ",
"                                              T W ^ ^ ^ ^ ^ W W T T W ^ [ O.,.,.,.$.O.| _ ^ W T T K K G G K T K T T                                             ",
"                                                  ^ [ [ [ [ _ _ _ [ [ [ [ O.&.&.$.$.O.[ [ ^ W T T K K K G K K K T T                                             ",
"                                                      | | O.O.| | [ [ | | O.$.$.$.O.| | _ ^ W K K K T K K K K K K K                                             ",
"                                                          O.$.$.$.O.O.| O.O.O.$.O.O.| [ _ ^ W T T K K K K G K G K                                               ",
"                                                              $.&.,.&.$.$.O.O.$.$.O.| [ _ ^ W T T K K G G G G G K                                               ",
"                                                                      &.&.$.$.$.$.O.O.[ _ ^ W T K K K K K G G                                                   ",
"                                                                              $.O.O.| [ _ ^ W T T K T                                                           "
};
